<svg xmlns="http://www.w3.org/2000/svg" viewBox="0 0 100 100" preserveAspectRatio="xMidYMid slice"><g fill="#4d546b" opacity="0.4"><circle cx="18.4" cy="30.0" r="0.28"/><circle cx="19.8" cy="29.6" r="0.18"/><circle cx="21.3" cy="29.1" r="0.18"/><circle cx="22.8" cy="28.7" r="0.18"/><circle cx="24.3" cy="28.4" r="0.18"/><circle cx="25.7" cy="28.1" r="0.18"/><circle cx="27.2" cy="27.8" r="0.18"/><circle cx="28.7" cy="27.7" r="0.18"/><circle cx="30.1" cy="27.6" r="0.18"/><circle cx="31.6" cy="27.6" r="0.18"/><circle cx="33.1" cy="27.7" r="0.18"/><circle cx="34.6" cy="27.8" r="0.18"/><circle cx="36.0" cy="28.0" r="0.18"/><circle cx="37.5" cy="28.2" r="0.18"/><circle cx="39.0" cy="28.5" r="0.18"/><circle cx="40.4" cy="28.8" r="0.18"/><circle cx="41.9" cy="29.1" r="0.28"/><circle cx="43.4" cy="29.4" r="0.18"/><circle cx="44.9" cy="29.7" r="0.18"/><circle cx="46.3" cy="30.0" r="0.18"/><circle cx="47.8" cy="30.2" r="0.18"/><circle cx="49.3" cy="30.4" r="0.18"/><circle cx="50.7" cy="30.5" r="0.18"/><circle cx="52.2" cy="30.6" r="0.18"/><circle cx="53.7" cy="30.6" r="0.18"/><circle cx="55.1" cy="30.5" r="0.18"/><circle cx="56.6" cy="30.4" r="0.18"/><circle cx="58.1" cy="30.2" r="0.18"/><circle cx="59.6" cy="30.0" r="0.18"/><circle cx="61.0" cy="29.8" r="0.18"/><circle cx="62.5" cy="29.6" r="0.18"/><circle cx="64.0" cy="29.4" r="0.18"/><circle cx="65.4" cy="29.2" r="0.18"/><circle cx="66.9" cy="29.0" r="0.18"/><circle cx="68.4" cy="28.8" r="0.18"/><circle cx="69.9" cy="28.8" r="0.18"/><circle cx="71.3" cy="28.7" r="0.18"/><circle cx="72.8" cy="28.8" r="0.18"/><circle cx="74.3" cy="28.9" r="0.18"/><circle cx="75.7" cy="29.0" r="0.18"/><circle cx="77.2" cy="29.3" r="0.18"/><circle cx="78.7" cy="29.6" r="0.18"/><circle cx="80.2" cy="29.9" r="0.18"/><circle cx="81.6" cy="30.2" r="0.18"/><circle cx="16.0" cy="34.7" r="0.20"/><circle cx="17.6" cy="34.3" r="0.20"/><circle cx="19.2" cy="34.1" r="0.20"/><circle cx="20.8" cy="33.8" r="0.20"/><circle cx="22.3" cy="33.7" r="0.20"/><circle cx="23.9" cy="33.6" r="0.20"/><circle cx="25.5" cy="33.5" r="0.20"/><circle cx="27.1" cy="33.5" r="0.20"/><circle cx="28.7" cy="33.6" r="0.20"/><circle cx="30.2" cy="33.8" r="0.20"/><circle cx="31.8" cy="33.9" r="0.30"/><circle cx="33.4" cy="34.1" r="0.20"/><circle cx="35.0" cy="34.4" r="0.20"/><circle cx="36.6" cy="34.6" r="0.20"/><circle cx="38.1" cy="34.8" r="0.20"/><circle cx="39.7" cy="35.0" r="0.20"/><circle cx="41.3" cy="35.1" r="0.20"/><circle cx="42.9" cy="35.2" r="0.20"/><circle cx="44.5" cy="35.3" r="0.20"/><circle cx="46.0" cy="35.3" r="0.20"/><circle cx="47.6" cy="35.2" r="0.20"/><circle cx="49.2" cy="35.1" r="0.20"/><circle cx="50.8" cy="34.9" r="0.20"/><circle cx="52.4" cy="34.7" r="0.20"/><circle cx="54.0" cy="34.4" r="0.20"/><circle cx="55.5" cy="34.1" r="0.20"/><circle cx="57.1" cy="33.7" r="0.20"/><circle cx="58.7" cy="33.4" r="0.20"/><circle cx="60.3" cy="33.1" r="0.20"/><circle cx="61.9" cy="32.7" r="0.20"/><circle cx="63.4" cy="32.5" r="0.20"/><circle cx="65.0" cy="32.2" r="0.20"/><circle cx="66.6" cy="32.1" r="0.20"/><circle cx="68.2" cy="32.0" r="0.20"/><circle cx="69.8" cy="32.0" r="0.20"/><circle cx="71.3" cy="32.0" r="0.20"/><circle cx="72.9" cy="32.2" r="0.20"/><circle cx="74.5" cy="32.4" r="0.20"/><circle cx="76.1" cy="32.6" r="0.20"/><circle cx="77.7" cy="33.0" r="0.20"/><circle cx="79.2" cy="33.4" r="0.20"/><circle cx="80.8" cy="33.8" r="0.20"/><circle cx="82.4" cy="34.2" r="0.20"/><circle cx="84.0" cy="34.7" r="0.20"/><circle cx="13.7" cy="38.7" r="0.22"/><circle cx="15.4" cy="38.6" r="0.22"/><circle cx="17.0" cy="38.7" r="0.22"/><circle cx="18.7" cy="38.7" r="0.22"/><circle cx="20.4" cy="38.9" r="0.22"/><circle cx="22.1" cy="39.0" r="0.22"/><circle cx="23.8" cy="39.3" r="0.22"/><circle cx="25.5" cy="39.5" r="0.22"/><circle cx="27.2" cy="39.8" r="0.22"/><circle cx="28.9" cy="40.1" r="0.32"/><circle cx="30.6" cy="40.4" r="0.22"/><circle cx="32.3" cy="40.7" r="0.22"/><circle cx="33.9" cy="40.9" r="0.22"/><circle cx="35.6" cy="41.1" r="0.22"/><circle cx="37.3" cy="41.2" r="0.22"/><circle cx="39.0" cy="41.3" r="0.22"/><circle cx="40.7" cy="41.3" r="0.22"/><circle cx="42.4" cy="41.2" r="0.22"/><circle cx="44.1" cy="41.0" r="0.22"/><circle cx="45.8" cy="40.8" r="0.22"/><circle cx="47.5" cy="40.5" r="0.22"/><circle cx="49.2" cy="40.2" r="0.22"/><circle cx="50.8" cy="39.8" r="0.22"/><circle cx="52.5" cy="39.3" r="0.22"/><circle cx="54.2" cy="38.9" r="0.22"/><circle cx="55.9" cy="38.4" r="0.22"/><circle cx="57.6" cy="38.0" r="0.22"/><circle cx="59.3" cy="37.6" r="0.22"/><circle cx="61.0" cy="37.2" r="0.22"/><circle cx="62.7" cy="36.9" r="0.22"/><circle cx="64.4" cy="36.7" r="0.22"/><circle cx="66.1" cy="36.5" r="0.32"/><circle cx="67.7" cy="36.4" r="0.22"/><circle cx="69.4" cy="36.4" r="0.22"/><circle cx="71.1" cy="36.5" r="0.22"/><circle cx="72.8" cy="36.7" r="0.22"/><circle cx="74.5" cy="36.9" r="0.22"/><circle cx="76.2" cy="37.1" r="0.22"/><circle cx="77.9" cy="37.4" r="0.22"/><circle cx="79.6" cy="37.8" r="0.22"/><circle cx="81.3" cy="38.1" r="0.22"/><circle cx="83.0" cy="38.5" r="0.22"/><circle cx="84.6" cy="38.8" r="0.22"/><circle cx="86.3" cy="39.1" r="0.22"/><circle cx="11.3" cy="42.2" r="0.24"/><circle cx="13.1" cy="42.5" r="0.24"/><circle cx="14.9" cy="42.7" r="0.24"/><circle cx="16.7" cy="43.1" r="0.24"/><circle cx="18.5" cy="43.5" r="0.24"/><circle cx="20.3" cy="43.9" r="0.24"/><circle cx="22.1" cy="44.3" r="0.24"/><circle cx="23.9" cy="44.7" r="0.24"/><circle cx="25.7" cy="45.1" r="0.24"/><circle cx="27.5" cy="45.5" r="0.24"/><circle cx="29.3" cy="45.8" r="0.24"/><circle cx="31.1" cy="46.1" r="0.24"/><circle cx="32.9" cy="46.3" r="0.24"/><circle cx="34.7" cy="46.4" r="0.24"/><circle cx="36.5" cy="46.4" r="0.24"/><circle cx="38.3" cy="46.4" r="0.24"/><circle cx="40.1" cy="46.3" r="0.24"/><circle cx="41.9" cy="46.1" r="0.24"/><circle cx="43.7" cy="45.8" r="0.24"/><circle cx="45.5" cy="45.5" r="0.24"/><circle cx="47.3" cy="45.1" r="0.24"/><circle cx="49.1" cy="44.7" r="0.24"/><circle cx="50.9" cy="44.3" r="0.24"/><circle cx="52.7" cy="43.9" r="0.25"/><circle cx="54.5" cy="43.4" r="0.35"/><circle cx="56.3" cy="43.0" r="0.25"/><circle cx="58.1" cy="42.6" r="0.26"/><circle cx="59.9" cy="42.3" r="0.26"/><circle cx="61.7" cy="42.0" r="0.26"/><circle cx="63.5" cy="41.8" r="0.27"/><circle cx="65.3" cy="41.7" r="0.27"/><circle cx="67.1" cy="41.7" r="0.27"/><circle cx="68.9" cy="41.8" r="0.27"/><circle cx="70.7" cy="41.9" r="0.27"/><circle cx="72.5" cy="42.1" r="0.26"/><circle cx="74.3" cy="42.4" r="0.26"/><circle cx="76.1" cy="42.7" r="0.26"/><circle cx="77.9" cy="43.0" r="0.25"/><circle cx="79.7" cy="43.3" r="0.25"/><circle cx="81.5" cy="43.6" r="0.25"/><circle cx="83.3" cy="43.8" r="0.24"/><circle cx="85.1" cy="44.0" r="0.24"/><circle cx="86.9" cy="44.1" r="0.24"/><circle cx="88.7" cy="44.2" r="0.24"/><circle cx="9.0" cy="46.2" r="0.26"/><circle cx="10.9" cy="46.5" r="0.26"/><circle cx="12.8" cy="46.9" r="0.26"/><circle cx="14.7" cy="47.3" r="0.26"/><circle cx="16.6" cy="47.8" r="0.36"/><circle cx="18.5" cy="48.2" r="0.26"/><circle cx="20.4" cy="48.6" r="0.26"/><circle cx="22.3" cy="49.0" r="0.26"/><circle cx="24.2" cy="49.3" r="0.36"/><circle cx="26.1" cy="49.6" r="0.26"/><circle cx="28.1" cy="49.8" r="0.36"/><circle cx="30.0" cy="50.0" r="0.26"/><circle cx="31.9" cy="50.1" r="0.26"/><circle cx="33.8" cy="50.1" r="0.26"/><circle cx="35.7" cy="50.0" r="0.26"/><circle cx="37.6" cy="49.9" r="0.26"/><circle cx="39.5" cy="49.7" r="0.26"/><circle cx="41.4" cy="49.4" r="0.26"/><circle cx="43.3" cy="49.1" r="0.26"/><circle cx="45.2" cy="48.8" r="0.27"/><circle cx="47.1" cy="48.5" r="0.27"/><circle cx="49.0" cy="48.1" r="0.38"/><circle cx="51.0" cy="47.6" r="0.29"/><circle cx="52.9" cy="47.2" r="0.30"/><circle cx="81.5" cy="48.8" r="0.41"/><circle cx="83.4" cy="49.2" r="0.30"/><circle cx="85.3" cy="49.5" r="0.29"/><circle cx="87.2" cy="49.6" r="0.28"/><circle cx="89.1" cy="49.6" r="0.27"/><circle cx="91.0" cy="49.5" r="0.27"/><circle cx="6.6" cy="51.4" r="0.28"/><circle cx="8.6" cy="51.7" r="0.28"/><circle cx="10.6" cy="52.0" r="0.28"/><circle cx="12.7" cy="52.3" r="0.28"/><circle cx="14.7" cy="52.6" r="0.28"/><circle cx="16.7" cy="52.8" r="0.28"/><circle cx="18.7" cy="53.0" r="0.28"/><circle cx="20.7" cy="53.2" r="0.28"/><circle cx="22.8" cy="53.2" r="0.28"/><circle cx="24.8" cy="53.3" r="0.38"/><circle cx="26.8" cy="53.3" r="0.28"/><circle cx="28.8" cy="53.2" r="0.28"/><circle cx="30.8" cy="53.0" r="0.28"/><circle cx="32.8" cy="52.8" r="0.28"/><circle cx="34.9" cy="52.6" r="0.28"/><circle cx="36.9" cy="52.4" r="0.28"/><circle cx="38.9" cy="52.1" r="0.28"/><circle cx="40.9" cy="51.8" r="0.29"/><circle cx="42.9" cy="51.5" r="0.29"/><circle cx="45.0" cy="51.2" r="0.30"/><circle cx="47.0" cy="50.8" r="0.31"/><circle cx="49.0" cy="50.3" r="0.33"/><circle cx="89.4" cy="54.1" r="0.33"/><circle cx="91.4" cy="54.2" r="0.31"/><circle cx="93.4" cy="54.2" r="0.30"/><circle cx="4.3" cy="57.6" r="0.30"/><circle cx="6.4" cy="57.8" r="0.30"/><circle cx="8.5" cy="58.0" r="0.30"/><circle cx="10.6" cy="58.0" r="0.30"/><circle cx="12.8" cy="58.1" r="0.30"/><circle cx="14.9" cy="58.1" r="0.30"/><circle cx="17.0" cy="58.0" r="0.30"/><circle cx="19.2" cy="57.8" r="0.30"/><circle cx="21.3" cy="57.6" r="0.30"/><circle cx="23.4" cy="57.3" r="0.30"/><circle cx="25.5" cy="57.0" r="0.30"/><circle cx="27.7" cy="56.7" r="0.30"/><circle cx="29.8" cy="56.4" r="0.30"/><circle cx="31.9" cy="56.0" r="0.30"/><circle cx="34.0" cy="55.7" r="0.30"/><circle cx="36.2" cy="55.3" r="0.30"/><circle cx="38.3" cy="55.0" r="0.30"/><circle cx="40.4" cy="54.7" r="0.31"/><circle cx="42.6" cy="54.4" r="0.32"/><circle cx="44.7" cy="54.0" r="0.33"/><circle cx="46.8" cy="53.6" r="0.35"/><circle cx="93.6" cy="57.6" r="0.34"/><circle cx="95.7" cy="57.7" r="0.43"/><circle cx="1.9" cy="64.0" r="0.32"/><circle cx="4.1" cy="64.0" r="0.32"/><circle cx="6.4" cy="64.0" r="0.32"/><circle cx="8.6" cy="63.9" r="0.32"/><circle cx="10.9" cy="63.7" r="0.32"/><circle cx="13.1" cy="63.5" r="0.32"/><circle cx="15.3" cy="63.2" r="0.32"/><circle cx="17.6" cy="62.8" r="0.32"/><circle cx="19.8" cy="62.4" r="0.32"/><circle cx="22.0" cy="62.0" r="0.32"/><circle cx="24.3" cy="61.5" r="0.42"/><circle cx="26.5" cy="61.1" r="0.32"/><circle cx="28.8" cy="60.7" r="0.32"/><circle cx="31.0" cy="60.3" r="0.32"/><circle cx="33.2" cy="59.9" r="0.32"/><circle cx="35.5" cy="59.6" r="0.32"/><circle cx="37.7" cy="59.4" r="0.32"/><circle cx="39.9" cy="59.2" r="0.33"/><circle cx="42.2" cy="59.0" r="0.33"/><circle cx="44.4" cy="58.8" r="0.34"/><circle cx="46.6" cy="58.6" r="0.35"/><circle cx="93.6" cy="60.2" r="0.37"/><circle cx="95.9" cy="60.5" r="0.35"/><circle cx="98.1" cy="60.6" r="0.34"/><circle cx="-0.4" cy="69.1" r="0.34"/><circle cx="1.9" cy="69.1" r="0.34"/><circle cx="4.2" cy="69.0" r="0.34"/><circle cx="6.6" cy="68.8" r="0.34"/><circle cx="8.9" cy="68.5" r="0.34"/><circle cx="11.3" cy="68.2" r="0.34"/><circle cx="13.6" cy="67.8" r="0.34"/><circle cx="16.0" cy="67.4" r="0.34"/><circle cx="18.3" cy="67.1" r="0.34"/><circle cx="20.7" cy="66.7" r="0.34"/><circle cx="23.0" cy="66.3" r="0.34"/><circle cx="25.4" cy="66.0" r="0.34"/><circle cx="27.7" cy="65.7" r="0.34"/><circle cx="30.1" cy="65.4" r="0.34"/><circle cx="32.4" cy="65.3" r="0.34"/><circle cx="34.7" cy="65.1" r="0.34"/><circle cx="37.1" cy="65.1" r="0.34"/><circle cx="39.4" cy="65.1" r="0.34"/><circle cx="41.8" cy="65.1" r="0.34"/><circle cx="44.1" cy="65.2" r="0.45"/><circle cx="46.5" cy="65.2" r="0.35"/><circle cx="48.8" cy="65.3" r="0.36"/><circle cx="51.2" cy="65.2" r="0.37"/><circle cx="53.5" cy="65.2" r="0.38"/><circle cx="91.1" cy="63.6" r="0.38"/><circle cx="93.4" cy="63.7" r="0.37"/><circle cx="95.8" cy="63.7" r="0.36"/><circle cx="98.1" cy="63.7" r="0.35"/><circle cx="100.4" cy="63.8" r="0.35"/><circle cx="-2.8" cy="72.6" r="0.36"/><circle cx="-0.3" cy="72.5" r="0.36"/><circle cx="2.1" cy="72.3" r="0.36"/><circle cx="4.6" cy="72.1" r="0.36"/><circle cx="7.0" cy="71.8" r="0.36"/><circle cx="9.5" cy="71.6" r="0.36"/><circle cx="11.9" cy="71.3" r="0.36"/><circle cx="14.4" cy="71.1" r="0.36"/><circle cx="16.8" cy="70.9" r="0.36"/><circle cx="19.3" cy="70.7" r="0.36"/><circle cx="21.8" cy="70.6" r="0.36"/><circle cx="24.2" cy="70.5" r="0.36"/><circle cx="26.7" cy="70.5" r="0.36"/><circle cx="29.1" cy="70.6" r="0.36"/><circle cx="31.6" cy="70.7" r="0.36"/><circle cx="34.0" cy="70.8" r="0.36"/><circle cx="36.5" cy="71.0" r="0.36"/><circle cx="38.9" cy="71.3" r="0.36"/><circle cx="41.4" cy="71.5" r="0.46"/><circle cx="43.9" cy="71.8" r="0.36"/><circle cx="46.3" cy="72.0" r="0.36"/><circle cx="48.8" cy="72.2" r="0.36"/><circle cx="51.2" cy="72.4" r="0.37"/><circle cx="53.7" cy="72.5" r="0.37"/><circle cx="56.1" cy="72.5" r="0.37"/><circle cx="58.6" cy="72.5" r="0.38"/><circle cx="61.1" cy="72.4" r="0.38"/><circle cx="63.5" cy="72.2" r="0.38"/><circle cx="66.0" cy="71.9" r="0.39"/><circle cx="68.4" cy="71.6" r="0.39"/><circle cx="70.9" cy="71.3" r="0.39"/><circle cx="73.3" cy="70.9" r="0.39"/><circle cx="75.8" cy="70.6" r="0.39"/><circle cx="78.2" cy="70.2" r="0.39"/><circle cx="80.7" cy="69.8" r="0.39"/><circle cx="83.2" cy="69.5" r="0.38"/><circle cx="85.6" cy="69.2" r="0.38"/><circle cx="88.1" cy="68.9" r="0.38"/><circle cx="90.5" cy="68.6" r="0.37"/><circle cx="93.0" cy="68.4" r="0.37"/><circle cx="95.4" cy="68.3" r="0.37"/><circle cx="97.9" cy="68.2" r="0.36"/><circle cx="100.3" cy="68.1" r="0.36"/><circle cx="102.8" cy="68.2" r="0.36"/><circle cx="-5.1" cy="75.2" r="0.38"/><circle cx="-2.6" cy="75.0" r="0.38"/><circle cx="-0.0" cy="74.8" r="0.38"/><circle cx="2.5" cy="74.6" r="0.38"/><circle cx="5.1" cy="74.4" r="0.48"/><circle cx="7.7" cy="74.2" r="0.38"/><circle cx="10.2" cy="74.1" r="0.38"/><circle cx="12.8" cy="74.1" r="0.38"/><circle cx="15.4" cy="74.1" r="0.38"/><circle cx="17.9" cy="74.2" r="0.38"/><circle cx="20.5" cy="74.3" r="0.48"/><circle cx="23.1" cy="74.5" r="0.38"/><circle cx="25.6" cy="74.8" r="0.38"/><circle cx="28.2" cy="75.1" r="0.38"/><circle cx="30.8" cy="75.5" r="0.38"/><circle cx="33.3" cy="75.9" r="0.38"/><circle cx="35.9" cy="76.3" r="0.38"/><circle cx="38.5" cy="76.7" r="0.38"/><circle cx="41.0" cy="77.1" r="0.38"/><circle cx="43.6" cy="77.4" r="0.38"/><circle cx="46.2" cy="77.7" r="0.38"/><circle cx="48.7" cy="77.9" r="0.38"/><circle cx="51.3" cy="78.1" r="0.38"/><circle cx="53.8" cy="78.2" r="0.38"/><circle cx="56.4" cy="78.2" r="0.38"/><circle cx="59.0" cy="78.2" r="0.38"/><circle cx="61.5" cy="78.0" r="0.38"/><circle cx="64.1" cy="77.8" r="0.38"/><circle cx="66.7" cy="77.5" r="0.38"/><circle cx="69.2" cy="77.2" r="0.38"/><circle cx="71.8" cy="76.8" r="0.38"/><circle cx="74.4" cy="76.4" r="0.38"/><circle cx="76.9" cy="76.0" r="0.38"/><circle cx="79.5" cy="75.6" r="0.38"/><circle cx="82.1" cy="75.2" r="0.38"/><circle cx="84.6" cy="74.8" r="0.38"/><circle cx="87.2" cy="74.5" r="0.38"/><circle cx="89.8" cy="74.3" r="0.38"/><circle cx="92.3" cy="74.1" r="0.38"/><circle cx="94.9" cy="73.9" r="0.38"/><circle cx="97.5" cy="73.9" r="0.48"/><circle cx="100.0" cy="73.9" r="0.38"/><circle cx="102.6" cy="74.0" r="0.38"/><circle cx="105.1" cy="74.1" r="0.38"/><circle cx="-7.5" cy="78.3" r="0.40"/><circle cx="-4.8" cy="78.0" r="0.40"/><circle cx="-2.2" cy="77.7" r="0.40"/><circle cx="0.5" cy="77.5" r="0.40"/><circle cx="3.2" cy="77.4" r="0.40"/><circle cx="5.9" cy="77.4" r="0.40"/><circle cx="8.5" cy="77.4" r="0.40"/><circle cx="11.2" cy="77.5" r="0.40"/><circle cx="13.9" cy="77.7" r="0.40"/><circle cx="16.6" cy="77.9" r="0.40"/><circle cx="19.2" cy="78.2" r="0.40"/><circle cx="21.9" cy="78.6" r="0.40"/><circle cx="24.6" cy="79.0" r="0.40"/><circle cx="27.3" cy="79.4" r="0.40"/><circle cx="29.9" cy="79.8" r="0.40"/><circle cx="32.6" cy="80.3" r="0.40"/><circle cx="35.3" cy="80.7" r="0.40"/><circle cx="38.0" cy="81.1" r="0.40"/><circle cx="40.6" cy="81.4" r="0.40"/><circle cx="43.3" cy="81.7" r="0.40"/><circle cx="46.0" cy="81.9" r="0.40"/><circle cx="48.7" cy="82.0" r="0.40"/><circle cx="51.3" cy="82.1" r="0.40"/><circle cx="54.0" cy="82.1" r="0.40"/><circle cx="56.7" cy="82.0" r="0.40"/><circle cx="59.4" cy="81.9" r="0.40"/><circle cx="62.0" cy="81.7" r="0.40"/><circle cx="64.7" cy="81.5" r="0.40"/><circle cx="67.4" cy="81.2" r="0.40"/><circle cx="70.1" cy="80.9" r="0.40"/><circle cx="72.7" cy="80.6" r="0.40"/><circle cx="75.4" cy="80.4" r="0.40"/><circle cx="78.1" cy="80.1" r="0.40"/><circle cx="80.8" cy="79.9" r="0.40"/><circle cx="83.4" cy="79.7" r="0.40"/><circle cx="86.1" cy="79.6" r="0.40"/><circle cx="88.8" cy="79.6" r="0.40"/><circle cx="91.5" cy="79.6" r="0.40"/><circle cx="94.1" cy="79.6" r="0.40"/><circle cx="96.8" cy="79.8" r="0.40"/><circle cx="99.5" cy="79.9" r="0.50"/><circle cx="102.2" cy="80.1" r="0.40"/><circle cx="104.8" cy="80.4" r="0.40"/><circle cx="107.5" cy="80.6" r="0.40"/></g><g fill="#2f3be8"><circle cx="54.8" cy="46.7" r="0.31" opacity="0.41"/><circle cx="56.7" cy="46.2" r="0.33" opacity="0.44"/><circle cx="58.6" cy="45.7" r="0.35" opacity="0.48"/><circle cx="60.5" cy="45.3" r="0.37" opacity="0.52"/><circle cx="62.4" cy="45.0" r="0.39" opacity="0.55"/><circle cx="64.3" cy="44.8" r="0.40" opacity="0.58"/><circle cx="66.2" cy="44.8" r="0.41" opacity="0.60"/><circle cx="68.1" cy="45.0" r="0.41" opacity="0.61"/><circle cx="70.0" cy="45.3" r="0.41" opacity="0.60"/><circle cx="71.9" cy="45.8" r="0.40" opacity="0.58"/><circle cx="73.9" cy="46.4" r="0.39" opacity="0.55"/><circle cx="75.8" cy="47.0" r="0.37" opacity="0.51"/><circle cx="77.7" cy="47.7" r="0.35" opacity="0.48"/><circle cx="79.6" cy="48.3" r="0.33" opacity="0.44"/><circle cx="51.0" cy="49.7" r="0.35" opacity="0.45"/><circle cx="53.0" cy="49.0" r="0.39" opacity="0.52"/><circle cx="55.0" cy="48.2" r="0.43" opacity="0.60"/><circle cx="57.1" cy="47.3" r="0.48" opacity="0.69"/><circle cx="59.1" cy="46.3" r="0.53" opacity="0.80"/><circle cx="61.1" cy="45.4" r="0.58" opacity="0.91"/><circle cx="63.1" cy="44.6" r="0.63" opacity="1.00"/><circle cx="65.1" cy="44.1" r="0.63" opacity="1.00"/><circle cx="67.2" cy="43.9" r="0.63" opacity="1.00"/><circle cx="69.2" cy="44.1" r="0.63" opacity="1.00"/><circle cx="71.2" cy="44.7" r="0.63" opacity="1.00"/><circle cx="73.2" cy="45.7" r="0.63" opacity="1.00"/><circle cx="75.2" cy="46.9" r="0.63" opacity="1.00"/><circle cx="77.2" cy="48.3" r="0.58" opacity="0.90"/><circle cx="79.3" cy="49.7" r="0.53" opacity="0.79"/><circle cx="81.3" cy="51.1" r="0.47" opacity="0.69"/><circle cx="83.3" cy="52.2" r="0.43" opacity="0.59"/><circle cx="85.3" cy="53.1" r="0.39" opacity="0.51"/><circle cx="87.3" cy="53.7" r="0.45" opacity="0.45"/><circle cx="48.9" cy="53.1" r="0.37" opacity="0.44"/><circle cx="51.1" cy="52.4" r="0.41" opacity="0.52"/><circle cx="53.2" cy="51.6" r="0.46" opacity="0.61"/><circle cx="55.3" cy="50.5" r="0.51" opacity="0.73"/><circle cx="57.4" cy="49.3" r="0.58" opacity="0.87"/><circle cx="59.6" cy="47.9" r="0.65" opacity="1.00"/><circle cx="61.7" cy="46.6" r="0.65" opacity="1.00"/><circle cx="63.8" cy="45.5" r="0.65" opacity="1.00"/><circle cx="66.0" cy="44.6" r="0.65" opacity="1.00"/><circle cx="68.1" cy="44.2" r="0.65" opacity="1.00"/><circle cx="70.2" cy="44.3" r="0.65" opacity="1.00"/><circle cx="72.3" cy="45.0" r="0.65" opacity="1.00"/><circle cx="74.5" cy="46.2" r="0.65" opacity="1.00"/><circle cx="76.6" cy="47.7" r="0.65" opacity="1.00"/><circle cx="78.7" cy="49.5" r="0.65" opacity="1.00"/><circle cx="80.8" cy="51.3" r="0.65" opacity="1.00"/><circle cx="83.0" cy="53.1" r="0.58" opacity="0.86"/><circle cx="85.1" cy="54.6" r="0.51" opacity="0.72"/><circle cx="87.2" cy="55.8" r="0.45" opacity="0.60"/><circle cx="89.4" cy="56.7" r="0.40" opacity="0.51"/><circle cx="91.5" cy="57.3" r="0.37" opacity="0.44"/><circle cx="48.9" cy="58.3" r="0.37" opacity="0.41"/><circle cx="51.1" cy="57.9" r="0.40" opacity="0.46"/><circle cx="53.4" cy="57.4" r="0.44" opacity="0.53"/><circle cx="55.6" cy="56.7" r="0.48" opacity="0.62"/><circle cx="57.8" cy="55.8" r="0.53" opacity="0.72"/><circle cx="60.1" cy="54.9" r="0.59" opacity="0.83"/><circle cx="62.3" cy="53.9" r="0.64" opacity="0.95"/><circle cx="64.5" cy="53.0" r="0.67" opacity="1.00"/><circle cx="66.8" cy="52.4" r="0.67" opacity="1.00"/><circle cx="69.0" cy="52.0" r="0.67" opacity="1.00"/><circle cx="71.2" cy="52.0" r="0.67" opacity="1.00"/><circle cx="73.5" cy="52.3" r="0.67" opacity="1.00"/><circle cx="75.7" cy="53.1" r="0.67" opacity="1.00"/><circle cx="78.0" cy="54.1" r="0.67" opacity="1.00"/><circle cx="80.2" cy="55.2" r="0.64" opacity="0.94"/><circle cx="82.4" cy="56.4" r="0.58" opacity="0.82"/><circle cx="84.7" cy="57.5" r="0.53" opacity="0.71"/><circle cx="86.9" cy="58.5" r="0.48" opacity="0.61"/><circle cx="89.1" cy="59.3" r="0.43" opacity="0.52"/><circle cx="91.4" cy="59.9" r="0.40" opacity="0.46"/><circle cx="55.9" cy="65.0" r="0.40" opacity="0.42"/><circle cx="58.2" cy="64.7" r="0.42" opacity="0.46"/><circle cx="60.6" cy="64.4" r="0.44" opacity="0.50"/><circle cx="62.9" cy="64.0" r="0.46" opacity="0.55"/><circle cx="65.3" cy="63.6" r="0.48" opacity="0.59"/><circle cx="67.6" cy="63.3" r="0.50" opacity="0.62"/><circle cx="69.9" cy="63.0" r="0.51" opacity="0.64"/><circle cx="72.3" cy="62.8" r="0.51" opacity="0.65"/><circle cx="74.6" cy="62.7" r="0.51" opacity="0.64"/><circle cx="77.0" cy="62.8" r="0.50" opacity="0.62"/><circle cx="79.3" cy="62.9" r="0.48" opacity="0.59"/><circle cx="81.7" cy="63.0" r="0.46" opacity="0.54"/><circle cx="84.0" cy="63.2" r="0.44" opacity="0.50"/><circle cx="86.4" cy="63.4" r="0.42" opacity="0.46"/><circle cx="88.7" cy="63.5" r="0.40" opacity="0.42"/></g></svg>